<svg width="336" height="336" viewBox="0 0 336 336" fill="none" xmlns="http://www.w3.org/2000/svg">
<path d="M93.029 69.4424C89.1798 70.4047 81.8664 75.0237 77.0549 79.4503C68.5868 87.1486 67.432 89.843 37.6009 165.864C20.857 209.167 7 246.889 7 249.776C7 262.863 25.8609 267.097 32.2121 255.55C33.3668 253.048 47.8012 217.443 63.9678 176.065C80.1343 134.686 94.9536 99.6584 96.8782 98.5037C105.154 92.345 118.626 98.8886 118.626 109.089C118.626 111.976 109.388 137.188 98.2254 165.287C81.4815 207.435 77.8248 218.213 77.8248 226.874C77.2474 264.211 122.09 283.072 148.457 256.705C154.808 250.354 158.272 243.425 168.473 217.251C213.701 100.428 215.818 96.0017 225.633 96.0017C231.022 96.0017 239.875 103.893 239.875 108.512C239.875 110.244 233.331 128.335 225.441 148.735C217.55 169.136 211.006 187.227 211.006 189.152C211.006 193.963 219.667 201.854 225.056 201.854C227.75 201.854 231.599 200.314 233.716 198.39C236.026 196.658 243.917 179.336 251.807 159.513C264.895 126.41 265.857 122.946 265.857 109.281C265.857 96.5791 265.087 93.6922 260.66 86.7637C250.653 71.7519 227.173 63.4762 210.429 68.865C202.73 71.5595 193.685 80.7975 187.911 92.345C185.602 96.5791 172.322 130.067 157.888 166.634C143.646 203.394 130.558 234.957 128.826 236.881C121.898 244.58 105.154 238.614 105.154 228.606C105.154 226.489 114.199 201.469 125.362 173.37C136.332 145.079 146.148 119.289 146.725 115.825C148.457 106.779 144.223 91.7676 137.487 83.6844C126.902 70.7896 108.811 65.0159 93.029 69.4424Z" fill="#EF9B28"/>
<path d="M309.162 90.8054C305.313 92.73 301.079 101.776 286.645 138.343C276.829 163.17 268.746 185.88 268.746 188.767C268.746 194.733 276.637 201.854 283.18 201.854C285.49 201.854 289.147 199.929 291.456 197.427C293.573 195.118 303.389 172.985 313.012 148.158C328.793 107.934 330.333 102.738 328.408 97.9263C327.254 95.0395 323.982 91.7677 321.48 90.4205C315.514 87.726 315.129 87.726 309.162 90.8054Z" fill="#EF9B28"/>
</svg>
